#define cartoon_robot_free_width 48
#define cartoon_robot_free_height 48
static unsigned char cartoon_robot_free_bits[] = {
   0x00, 0x00, 0x00, 0x00, 0x00, 0x00, 0x00, 0x00, 0x80, 0x04, 0x00, 0x00,
   0x00, 0x00, 0x00, 0x00, 0x00, 0x00, 0x00, 0x00, 0x00, 0x00, 0x00, 0x00,
   0x00, 0x00, 0x80, 0x02, 0x00, 0x00, 0x00, 0x00, 0xf0, 0x7f, 0x00, 0x00,
   0x00, 0x00, 0x08, 0x40, 0x00, 0x00, 0x00, 0x00, 0x08, 0x40, 0x00, 0x00,
   0x00, 0x00, 0xc8, 0x4c, 0x00, 0x00, 0x00, 0x00, 0x08, 0x44, 0x00, 0x00,
   0x00, 0x00, 0x08, 0x44, 0x00, 0x00, 0x00, 0x00, 0x08, 0x40, 0x00, 0x00,
   0x00, 0x00, 0x18, 0x60, 0x00, 0x00, 0x00, 0x00, 0x08, 0x40, 0x00, 0x00,
   0x00, 0x00, 0x00, 0x40, 0x00, 0x00, 0x00, 0x00, 0x40, 0x08, 0x00, 0x00,
   0x00, 0x00, 0x40, 0x08, 0x00, 0x00, 0x00, 0x00, 0x01, 0x00, 0x0e, 0x00,
   0x00, 0xe0, 0x00, 0x00, 0x30, 0x00, 0x00, 0x30, 0x00, 0x44, 0x20, 0x00,
   0x00, 0x00, 0xf9, 0x47, 0x42, 0x00, 0x00, 0x08, 0x00, 0x28, 0x40, 0x00,
   0x00, 0x08, 0xc8, 0x23, 0x90, 0x00, 0x00, 0x08, 0x00, 0xaa, 0xc8, 0x00,
   0x00, 0x04, 0x00, 0xa2, 0x00, 0x00, 0x00, 0x04, 0xb8, 0xa7, 0x00, 0x01,
   0x00, 0x00, 0x01, 0x00, 0x00, 0x00, 0x00, 0x02, 0x00, 0x00, 0x08, 0x01,
   0x00, 0x84, 0xfe, 0xff, 0x89, 0x00, 0x00, 0x08, 0x00, 0x00, 0x01, 0x00,
   0x00, 0x00, 0x00, 0x00, 0x01, 0x00, 0x00, 0x00, 0x00, 0x00, 0x00, 0x00,
   0x00, 0x00, 0x80, 0x04, 0x00, 0x00, 0x00, 0x00, 0x80, 0x04, 0x00, 0x00,
   0x00, 0x00, 0x80, 0x04, 0x00, 0x00, 0x00, 0x00, 0x80, 0x04, 0x00, 0x00,
   0x00, 0x00, 0x00, 0x04, 0x00, 0x00, 0x00, 0x00, 0x48, 0x48, 0x00, 0x00,
   0x00, 0x00, 0x88, 0x44, 0x00, 0x00, 0x00, 0x00, 0x80, 0x04, 0x00, 0x00,
   0x00, 0x00, 0x80, 0x04, 0x00, 0x00, 0x00, 0x00, 0x80, 0x04, 0x00, 0x00,
   0x00, 0x00, 0x80, 0x04, 0x00, 0x00, 0x00, 0x00, 0xfc, 0xfc, 0x00, 0x00,
   0x00, 0x00, 0x00, 0x00, 0x00, 0x00, 0x00, 0x00, 0x00, 0x00, 0x00, 0x00,
   0x00, 0x00, 0xfe, 0xff, 0x01, 0x00, 0x00, 0x00, 0x02, 0x01, 0x01, 0x00 };
