#define t_rex_width 39
#define t_rex_height 48
static unsigned char t_rex_bits[] = {
   0x00, 0x00, 0x00, 0x00, 0x00, 0x00, 0x00, 0x00, 0x00, 0x00, 0x00, 0x00,
   0xf8, 0xff, 0x0f, 0x00, 0x00, 0x5c, 0x55, 0x0d, 0x00, 0x00, 0x1e, 0x00,
   0x08, 0x00, 0x00, 0x06, 0x00, 0x30, 0x00, 0x00, 0x86, 0x03, 0x30, 0x00,
   0x00, 0x46, 0x02, 0x30, 0x00, 0x00, 0x86, 0x02, 0x20, 0x00, 0x00, 0x86,
   0x01, 0x30, 0x00, 0x00, 0x06, 0x00, 0x30, 0x00, 0x00, 0x06, 0x00, 0x30,
   0x00, 0x00, 0x06, 0x00, 0x20, 0x00, 0x00, 0x06, 0x00, 0x30, 0x00, 0x00,
   0x06, 0x00, 0x30, 0x1c, 0x00, 0x07, 0x00, 0x06, 0x1b, 0xe0, 0x03, 0xa8,
   0x07, 0x1b, 0xe0, 0x01, 0xfc, 0x07, 0x13, 0x7c, 0x00, 0x7c, 0x00, 0x13,
   0x7c, 0x00, 0x7c, 0x00, 0xe3, 0x0f, 0x00, 0x40, 0x00, 0xc3, 0x07, 0x00,
   0x64, 0x00, 0x83, 0x03, 0x00, 0x4c, 0x00, 0x03, 0x00, 0x00, 0x7c, 0x00,
   0x03, 0x00, 0x00, 0x7c, 0x00, 0x03, 0x00, 0x00, 0x0c, 0x00, 0x03, 0x00,
   0x00, 0x0c, 0x00, 0x04, 0x00, 0x00, 0x02, 0x00, 0x18, 0x00, 0x00, 0x03,
   0x00, 0x18, 0x00, 0x00, 0x03, 0x00, 0x60, 0x00, 0x80, 0x03, 0x00, 0x60,
   0x00, 0xc0, 0x03, 0x00, 0x80, 0x01, 0xe0, 0x00, 0x00, 0x80, 0x01, 0xe0,
   0x00, 0x00, 0x80, 0x03, 0xe1, 0x00, 0x00, 0x00, 0xc2, 0x66, 0x00, 0x00,
   0x00, 0xc2, 0x66, 0x00, 0x00, 0x00, 0x32, 0x66, 0x00, 0x00, 0x00, 0x16,
   0x66, 0x00, 0x00, 0x00, 0xc2, 0x86, 0x00, 0x00, 0x00, 0xfe, 0xfe, 0x00,
   0x00, 0x00, 0xfe, 0xfe, 0x00, 0x00, 0x00, 0x00, 0x00, 0x00, 0x00, 0x00,
   0x00, 0x00, 0x00, 0x00, 0x00, 0x00, 0x00, 0x00, 0x00, 0x00, 0x00, 0x00,
   0x00, 0x00, 0x00, 0x00, 0x00, 0x00, 0x00, 0x00, 0x00, 0x00, 0x00, 0x00 };
