#define thomas_friends_width 84
#define thomas_friends_height 48
static unsigned char thomas_friends_bits[] = {
   0x00, 0x00, 0x00, 0x00, 0x28, 0x52, 0x09, 0x00, 0x80, 0x46, 0x00, 0x08,
   0x00, 0x00, 0x00, 0xa2, 0x4a, 0x09, 0x00, 0x10, 0x40, 0x00, 0x00, 0x00,
   0x00, 0x00, 0x88, 0x34, 0x00, 0x48, 0x30, 0x28, 0x00, 0x03, 0x10, 0x01,
   0x00, 0x80, 0x00, 0x80, 0x00, 0x88, 0x42, 0x00, 0x08, 0x00, 0x00, 0x00,
   0x00, 0x49, 0x00, 0x90, 0x10, 0xa0, 0x08, 0x00, 0x00, 0x00, 0x00, 0x00,
   0x00, 0x80, 0x50, 0x1b, 0x20, 0x00, 0x08, 0x00, 0x00, 0x00, 0x80, 0x00,
   0x00, 0x40, 0x10, 0x80, 0x00, 0x00, 0x00, 0x00, 0x00, 0x50, 0x00, 0x80,
   0x10, 0x00, 0x20, 0x0a, 0x08, 0x00, 0x00, 0x00, 0x82, 0x40, 0x00, 0x00,
   0x10, 0x00, 0x04, 0x00, 0x00, 0x00, 0x40, 0x10, 0x40, 0x00, 0xc0, 0x01,
   0xc0, 0x08, 0x00, 0x00, 0x00, 0x10, 0x00, 0x00, 0x82, 0xe0, 0x1b, 0xe0,
   0x0d, 0x00, 0x00, 0x00, 0x80, 0x29, 0xc0, 0x00, 0xe0, 0x07, 0xe0, 0x0d,
   0x00, 0x00, 0x50, 0x00, 0x83, 0xc0, 0xf1, 0xe0, 0x1b, 0xc0, 0x09, 0x08,
   0x0a, 0x80, 0x41, 0x38, 0xc0, 0x7f, 0xe0, 0x1f, 0xe0, 0x0f, 0x80, 0x00,
   0x00, 0x82, 0xc6, 0x00, 0x8c, 0x19, 0x07, 0x00, 0x00, 0x40, 0x00, 0x02,
   0x80, 0x00, 0x02, 0x18, 0xe2, 0x3f, 0x00, 0x00, 0x90, 0x40, 0x00, 0x28,
   0x00, 0x04, 0x60, 0x3c, 0x80, 0x01, 0x00, 0x10, 0x00, 0x00, 0xf0, 0x00,
   0x08, 0x40, 0x04, 0x00, 0x06, 0x00, 0x08, 0x00, 0x00, 0x10, 0x00, 0x13,
   0xc0, 0x1e, 0x3c, 0x08, 0x08, 0x08, 0x81, 0x00, 0x08, 0x00, 0x00, 0x80,
   0x0b, 0xec, 0x10, 0x08, 0x40, 0x00, 0x00, 0x04, 0x00, 0x20, 0x80, 0x00,
   0x00, 0x20, 0x00, 0x64, 0x30, 0x00, 0x90, 0xc0, 0x01, 0x00, 0x00, 0x00,
   0x40, 0x00, 0x64, 0x70, 0x00, 0x0a, 0x20, 0x40, 0x40, 0x04, 0x40, 0x40,
   0x00, 0x04, 0x41, 0x00, 0x3a, 0x70, 0x40, 0x00, 0x00, 0x00, 0x80, 0x00,
   0x04, 0x00, 0x20, 0x3a, 0xf0, 0x00, 0x20, 0x00, 0x00, 0x80, 0x00, 0x04,
   0x00, 0x00, 0x0a, 0x10, 0x00, 0x80, 0x01, 0x0c, 0x00, 0x01, 0x00, 0x00,
   0x00, 0x82, 0x00, 0x00, 0xc0, 0x03, 0x1c, 0x00, 0x01, 0x00, 0x00, 0x00,
   0x02, 0x00, 0x40, 0xd0, 0x03, 0x1c, 0x00, 0x01, 0x88, 0x20, 0x10, 0x00,
   0x10, 0x00, 0x80, 0x00, 0x1c, 0x00, 0x01, 0x08, 0x09, 0x00, 0x02, 0x00,
   0x40, 0x90, 0x00, 0x00, 0x02, 0x01, 0x00, 0x00, 0x00, 0x00, 0x00, 0x40,
   0x00, 0x00, 0x00, 0x00, 0x02, 0x00, 0x00, 0x00, 0x44, 0x00, 0x00, 0x00,
   0x00, 0x00, 0x00, 0x01, 0x40, 0x00, 0x04, 0x84, 0x28, 0x00, 0x00, 0x00,
   0x00, 0x00, 0x02, 0xa0, 0x00, 0x41, 0x0a, 0x01, 0x20, 0x00, 0x00, 0x00,
   0x00, 0x01, 0x00, 0x49, 0x00, 0x08, 0x00, 0x10, 0x10, 0x00, 0x00, 0x00,
   0x01, 0x40, 0x5b, 0x6b, 0x13, 0x04, 0x00, 0x10, 0x00, 0x00, 0x00, 0x01,
   0x00, 0x00, 0x08, 0x20, 0x00, 0xc8, 0x0f, 0x02, 0x00, 0x00, 0x01, 0x20,
   0x00, 0x00, 0x40, 0x00, 0x22, 0x04, 0x00, 0x02, 0x80, 0x00, 0x22, 0x00,
   0x04, 0x00, 0x81, 0xf5, 0x22, 0x00, 0x00, 0x80, 0x00, 0x00, 0x02, 0x28,
   0x09, 0x3c, 0x18, 0x00, 0x00, 0x00, 0x40, 0x00, 0x04, 0x00, 0x00, 0x00,
   0x04, 0x30, 0x40, 0x00, 0x00, 0x40, 0x00, 0x00, 0x00, 0x06, 0x00, 0x04,
   0x58, 0x80, 0x00, 0x00, 0x20, 0x00, 0x04, 0x00, 0x9f, 0x04, 0x0c, 0x94,
   0x00, 0x01, 0x00, 0x10, 0x00, 0x00, 0x80, 0x1f, 0xd5, 0x07, 0x26, 0x00,
   0x03, 0x00, 0x08, 0x02, 0x00, 0x80, 0x9f, 0x0c, 0xf8, 0x43, 0xa5, 0x0d,
   0x00, 0x06, 0x00, 0x02, 0x80, 0x3f, 0x04, 0x11, 0x42, 0x00, 0x29, 0x80,
   0x01, 0x00, 0xf8, 0x8f, 0x3f, 0x04, 0x18, 0x02, 0x01, 0x40, 0x7f, 0x00,
   0x00, 0xf0, 0x07, 0x1f, 0x06, 0x10, 0x64, 0x10, 0x14, 0x00, 0x00, 0x00 };
